<svg id="svg" version="1.1" width="400" height="400" viewBox="0 0 400 400" xmlns="http://www.w3.org/2000/svg" xmlns:xlink="http://www.w3.org/1999/xlink" ><g id="svgg"><path id="path0" d="M70.800 76.214 C 70.800 90.704,70.807 90.825,71.600 90.400 C 72.040 90.165,72.403 90.113,72.406 90.286 C 72.409 90.459,72.544 90.409,72.706 90.175 C 72.868 89.941,75.340 88.510,78.200 86.995 C 81.060 85.480,85.020 83.377,87.000 82.321 C 88.980 81.266,92.850 79.219,95.600 77.773 C 108.494 70.994,107.200 72.264,107.200 66.384 L 107.200 61.600 89.000 61.600 L 70.800 61.600 70.800 76.214 M102.500 114.753 C 100.465 115.814,98.797 116.573,98.794 116.441 C 98.791 116.308,98.656 116.407,98.494 116.660 C 98.332 116.914,96.310 118.060,94.000 119.207 C 91.690 120.355,89.530 121.528,89.200 121.815 C 88.870 122.102,88.330 122.396,88.000 122.468 C 87.670 122.541,87.310 122.701,87.200 122.825 C 86.975 123.079,77.133 128.281,73.306 130.170 L 70.812 131.400 70.806 181.900 L 70.800 232.400 168.800 232.400 L 266.800 232.400 266.800 183.700 L 266.800 135.000 199.196 135.000 L 131.592 135.000 131.696 153.000 L 131.800 171.000 181.200 171.102 L 230.600 171.203 230.512 183.502 L 230.424 195.800 168.812 195.901 L 107.200 196.003 107.200 154.401 C 107.200 121.380,107.097 112.803,106.700 112.813 C 106.425 112.820,104.535 113.693,102.500 114.753 M291.200 152.400 L 291.200 170.800 309.200 170.800 L 327.200 170.800 327.200 164.800 L 327.200 158.800 314.700 158.800 L 302.200 158.800 302.171 153.100 C 302.153 149.461,302.297 147.294,302.571 147.106 C 302.807 146.944,308.445 146.809,315.100 146.806 L 327.200 146.800 327.200 140.400 L 327.200 134.000 309.200 134.000 L 291.200 134.000 291.200 152.400 M291.299 274.700 L 291.400 353.800 309.300 353.904 L 327.200 354.008 327.200 274.804 L 327.200 195.600 309.199 195.600 L 291.198 195.600 291.299 274.700 M167.600 275.000 L 167.600 293.200 185.800 293.200 L 204.000 293.200 204.000 275.000 L 204.000 256.800 185.800 256.800 L 167.600 256.800 167.600 275.000 M229.782 257.302 C 229.677 257.578,229.637 271.348,229.695 287.902 L 229.800 318.000 150.300 318.000 L 70.800 318.000 70.800 336.800 L 70.800 355.600 168.400 355.600 L 266.000 355.600 266.000 306.200 L 266.000 256.800 247.987 256.800 C 233.914 256.800,229.933 256.910,229.782 257.302 " stroke="none" fill="#2c8cd4" fill-rule="evenodd"></path><path id="path1" d="M201.200 30.292 C 200.870 30.417,200.510 30.644,200.400 30.797 C 200.290 30.949,198.040 32.129,195.400 33.419 C 192.760 34.709,190.498 35.909,190.374 36.086 C 190.250 36.262,188.315 37.304,186.074 38.402 C 183.833 39.500,182.000 40.589,182.000 40.822 C 182.000 41.056,181.835 41.145,181.634 41.021 C 181.433 40.897,181.208 40.931,181.134 41.098 C 181.060 41.264,178.750 42.541,176.000 43.936 C 165.468 49.278,162.651 50.794,162.337 51.289 C 162.158 51.570,162.007 51.620,162.000 51.400 C 161.992 51.137,161.887 51.139,161.694 51.404 C 161.532 51.627,159.240 52.873,156.600 54.173 C 153.960 55.474,151.620 56.753,151.400 57.017 C 151.180 57.280,149.650 58.099,148.000 58.836 C 146.350 59.574,144.910 60.282,144.800 60.411 C 144.690 60.540,144.015 60.882,143.300 61.171 C 142.585 61.460,142.000 61.833,142.000 62.000 C 142.000 62.167,141.415 62.540,140.700 62.829 C 139.985 63.118,139.310 63.462,139.200 63.594 C 139.090 63.726,137.650 64.424,136.000 65.145 C 134.350 65.866,132.820 66.685,132.600 66.963 C 132.380 67.242,130.051 68.510,127.425 69.781 C 124.799 71.052,122.408 72.335,122.111 72.632 C 121.815 72.928,119.868 73.983,117.786 74.976 C 115.704 75.969,114.000 76.976,114.000 77.214 C 114.000 77.452,113.820 77.536,113.600 77.400 C 113.380 77.264,113.200 77.343,113.200 77.576 C 113.200 77.809,113.003 78.000,112.762 78.000 C 112.130 78.000,103.109 82.496,102.413 83.158 C 102.090 83.465,100.335 84.402,98.513 85.240 C 96.691 86.078,95.200 86.962,95.200 87.205 C 95.200 87.448,95.020 87.536,94.800 87.400 C 94.580 87.264,94.400 87.354,94.400 87.600 C 94.400 87.846,94.235 87.945,94.034 87.821 C 93.833 87.697,93.608 87.731,93.534 87.898 C 93.460 88.064,91.268 89.252,88.662 90.538 C 86.057 91.823,83.582 93.218,83.162 93.638 C 82.743 94.057,82.218 94.400,81.996 94.400 C 81.321 94.400,75.041 97.612,74.716 98.123 C 74.549 98.385,74.407 98.420,74.400 98.200 C 74.393 97.956,74.273 97.967,74.094 98.227 C 73.932 98.462,71.685 99.689,69.100 100.954 C 66.515 102.219,64.400 103.389,64.400 103.555 C 64.400 103.720,63.072 104.439,61.449 105.152 C 59.826 105.866,58.075 106.843,57.558 107.325 C 57.042 107.806,56.570 108.155,56.509 108.100 C 56.186 107.804,55.181 108.076,54.656 108.601 C 53.985 109.273,47.060 112.800,46.413 112.800 C 46.186 112.800,46.000 113.070,46.000 113.400 C 46.000 113.730,45.865 113.966,45.700 113.924 C 45.292 113.820,35.130 118.848,34.486 119.473 C 34.203 119.747,32.268 120.783,30.186 121.776 C 28.104 122.769,26.400 123.776,26.400 124.014 C 26.400 124.252,26.235 124.345,26.034 124.221 C 25.833 124.097,25.608 124.131,25.534 124.298 C 25.460 124.464,23.912 125.320,22.092 126.200 C 18.555 127.911,18.049 128.906,19.818 130.675 C 20.163 131.020,21.353 133.170,22.462 135.452 C 23.571 137.733,24.635 139.600,24.827 139.600 C 25.018 139.600,25.080 139.847,24.964 140.148 C 24.849 140.450,25.011 140.954,25.325 141.268 C 25.639 141.582,26.194 142.415,26.558 143.120 C 26.923 143.824,27.378 144.400,27.570 144.400 C 28.381 144.400,34.800 141.199,34.800 140.795 C 34.800 140.552,34.965 140.455,35.166 140.579 C 35.367 140.703,35.592 140.669,35.666 140.502 C 35.740 140.336,37.934 139.147,40.542 137.860 C 43.150 136.574,45.599 135.251,45.984 134.921 C 46.369 134.591,48.150 133.659,49.943 132.849 C 51.735 132.039,53.561 131.069,54.000 130.692 C 54.440 130.316,54.803 130.141,54.806 130.304 C 54.809 130.467,54.944 130.399,55.106 130.153 C 55.268 129.907,57.560 128.666,60.200 127.394 C 62.840 126.122,65.058 124.934,65.129 124.753 C 65.200 124.573,67.360 123.403,69.929 122.153 C 72.498 120.903,74.697 119.733,74.816 119.553 C 75.084 119.146,83.012 115.200,83.561 115.200 C 83.780 115.200,84.104 114.958,84.280 114.662 C 84.456 114.367,86.760 113.063,89.400 111.764 C 92.040 110.465,94.431 109.184,94.714 108.916 C 94.997 108.648,96.932 107.617,99.014 106.624 C 101.096 105.631,102.800 104.624,102.800 104.386 C 102.800 104.148,102.965 104.055,103.166 104.179 C 103.367 104.303,103.592 104.269,103.666 104.102 C 103.740 103.936,106.005 102.721,108.700 101.402 C 111.395 100.083,113.600 98.868,113.600 98.702 C 113.600 98.536,113.870 98.400,114.200 98.400 C 114.530 98.400,114.802 98.265,114.805 98.100 C 114.807 97.935,116.261 97.170,118.034 96.400 C 119.808 95.630,121.606 94.678,122.030 94.284 C 122.453 93.891,122.803 93.711,122.806 93.884 C 122.809 94.058,122.944 94.012,123.106 93.782 C 123.268 93.553,125.560 92.309,128.200 91.018 C 130.840 89.728,133.057 88.528,133.128 88.353 C 133.198 88.178,135.178 87.095,137.528 85.948 C 139.877 84.801,141.932 83.668,142.094 83.431 C 142.271 83.172,142.393 83.159,142.400 83.400 C 142.407 83.622,142.543 83.598,142.706 83.347 C 142.868 83.097,144.980 81.931,147.400 80.755 C 149.820 79.579,151.980 78.405,152.200 78.147 C 152.420 77.889,154.760 76.638,157.400 75.366 C 160.040 74.095,162.297 72.913,162.416 72.740 C 162.534 72.567,164.469 71.516,166.716 70.403 C 168.962 69.291,170.800 68.194,170.800 67.967 C 170.800 67.739,170.980 67.664,171.200 67.800 C 171.420 67.936,171.600 67.897,171.600 67.713 C 171.600 67.529,172.815 66.854,174.300 66.214 C 175.785 65.574,177.090 64.944,177.200 64.814 C 177.310 64.684,178.191 64.229,179.159 63.802 C 180.126 63.375,181.116 62.830,181.359 62.590 C 181.601 62.351,183.735 61.214,186.100 60.064 C 188.465 58.913,190.400 57.788,190.400 57.563 C 190.400 57.337,190.565 57.255,190.766 57.379 C 190.967 57.503,191.192 57.463,191.266 57.289 C 191.340 57.115,193.560 55.922,196.200 54.638 C 198.840 53.353,201.060 52.145,201.133 51.951 C 201.304 51.502,202.691 51.492,202.867 51.939 C 202.940 52.125,205.160 53.340,207.800 54.639 C 210.440 55.938,212.660 57.136,212.734 57.302 C 212.808 57.469,213.033 57.503,213.234 57.379 C 213.435 57.255,213.600 57.338,213.600 57.565 C 213.600 57.792,215.286 58.782,217.347 59.764 C 219.408 60.747,221.343 61.792,221.647 62.088 C 221.951 62.383,224.360 63.677,227.000 64.963 C 229.640 66.249,231.915 67.481,232.055 67.702 C 232.196 67.922,232.511 67.979,232.755 67.828 C 233.009 67.671,233.200 67.821,233.200 68.176 C 233.200 68.519,233.377 68.800,233.592 68.800 C 234.192 68.800,240.693 71.952,241.282 72.528 C 241.567 72.807,243.960 74.101,246.600 75.405 C 249.240 76.708,251.458 77.910,251.529 78.075 C 251.600 78.240,253.756 79.399,256.321 80.650 C 258.885 81.902,261.213 83.156,261.494 83.437 C 261.775 83.718,262.409 84.074,262.902 84.228 C 263.396 84.382,263.890 84.626,264.000 84.771 C 264.110 84.915,265.550 85.624,267.200 86.345 C 268.850 87.066,270.380 87.883,270.600 88.159 C 270.820 88.436,273.160 89.728,275.800 91.031 C 278.440 92.334,280.660 93.536,280.734 93.702 C 280.808 93.869,281.033 93.903,281.234 93.779 C 281.435 93.655,281.600 93.727,281.600 93.939 C 281.600 94.151,283.490 95.250,285.800 96.381 C 288.110 97.512,290.000 98.609,290.000 98.819 C 290.000 99.028,290.186 99.200,290.412 99.200 C 290.993 99.200,300.171 103.735,300.334 104.102 C 300.408 104.269,300.633 104.303,300.834 104.179 C 301.035 104.055,301.200 104.132,301.200 104.351 C 301.200 104.570,302.916 105.590,305.014 106.617 C 307.111 107.644,309.046 108.696,309.314 108.955 C 309.581 109.213,311.960 110.483,314.600 111.776 C 317.240 113.069,319.532 114.323,319.694 114.563 C 319.856 114.804,319.991 114.831,319.994 114.624 C 319.997 114.416,320.225 114.514,320.500 114.841 C 320.775 115.167,322.170 115.967,323.600 116.617 C 325.030 117.268,326.290 117.911,326.400 118.046 C 326.510 118.181,327.004 118.418,327.498 118.572 C 327.991 118.726,328.629 119.086,328.914 119.371 C 329.199 119.656,331.585 120.940,334.216 122.224 C 336.847 123.507,339.061 124.706,339.136 124.886 C 339.211 125.067,341.366 126.230,343.927 127.470 C 346.487 128.710,348.796 129.939,349.057 130.200 C 349.318 130.461,350.132 130.918,350.866 131.215 C 351.600 131.512,352.290 131.862,352.400 131.993 C 352.510 132.124,353.770 132.740,355.200 133.361 C 356.630 133.982,357.980 134.709,358.200 134.976 C 358.420 135.244,360.715 136.513,363.300 137.797 C 365.885 139.081,368.000 140.301,368.000 140.508 C 368.000 140.716,368.270 140.782,368.600 140.655 C 368.930 140.529,369.200 140.594,369.200 140.801 C 369.200 141.331,375.963 144.500,376.585 144.261 C 376.866 144.153,377.513 143.060,378.022 141.832 C 378.531 140.605,379.105 139.600,379.297 139.600 C 379.490 139.600,379.536 139.420,379.400 139.200 C 379.264 138.980,379.354 138.800,379.600 138.800 C 379.846 138.800,379.936 138.620,379.800 138.400 C 379.664 138.180,379.745 138.000,379.980 138.000 C 380.215 138.000,381.093 136.515,381.932 134.700 C 382.770 132.885,383.761 131.095,384.134 130.723 C 385.966 128.892,385.491 127.923,381.918 126.200 C 380.093 125.320,378.540 124.464,378.466 124.298 C 378.392 124.131,378.167 124.097,377.966 124.221 C 377.765 124.345,377.600 124.264,377.600 124.040 C 377.600 123.815,375.845 122.750,373.700 121.672 C 368.378 118.998,364.640 117.040,364.400 116.800 C 364.290 116.690,363.030 116.060,361.600 115.400 C 360.170 114.740,358.940 114.064,358.866 113.898 C 358.792 113.731,358.567 113.697,358.366 113.821 C 358.165 113.945,358.000 113.861,358.000 113.633 C 358.000 113.406,356.214 112.335,354.031 111.254 C 351.847 110.173,349.653 108.908,349.155 108.444 C 348.471 107.806,348.170 107.722,347.930 108.099 C 347.709 108.448,347.610 108.459,347.606 108.136 C 347.603 107.880,345.903 106.840,343.830 105.825 C 341.756 104.809,340.001 103.839,339.930 103.668 C 339.858 103.498,337.640 102.307,335.000 101.022 C 332.360 99.737,330.068 98.487,329.906 98.243 C 329.737 97.988,329.607 97.970,329.600 98.200 C 329.593 98.441,329.471 98.428,329.294 98.169 C 329.132 97.932,327.077 96.799,324.728 95.652 C 322.378 94.505,320.398 93.415,320.328 93.232 C 320.257 93.048,318.040 91.847,315.400 90.562 C 312.760 89.278,310.540 88.085,310.466 87.911 C 310.392 87.737,310.167 87.697,309.966 87.821 C 309.765 87.945,309.600 87.846,309.600 87.600 C 309.600 87.354,309.420 87.264,309.200 87.400 C 308.980 87.536,308.800 87.468,308.800 87.249 C 308.800 87.030,307.045 85.993,304.900 84.946 C 302.755 83.898,300.801 82.846,300.559 82.608 C 300.316 82.369,299.326 81.825,298.359 81.398 C 297.391 80.971,296.510 80.516,296.400 80.386 C 296.290 80.256,294.985 79.626,293.500 78.986 C 292.015 78.346,290.800 77.671,290.800 77.487 C 290.800 77.303,290.620 77.264,290.400 77.400 C 290.180 77.536,290.000 77.452,290.000 77.214 C 290.000 76.976,288.296 75.969,286.214 74.976 C 284.132 73.983,282.197 72.947,281.914 72.673 C 281.631 72.399,279.243 71.122,276.606 69.836 C 273.970 68.549,271.630 67.270,271.406 66.994 C 271.183 66.717,269.830 65.982,268.400 65.361 C 266.970 64.740,265.710 64.124,265.600 63.993 C 265.490 63.862,264.800 63.512,264.066 63.215 C 263.332 62.918,262.522 62.466,262.266 62.210 C 262.010 61.954,259.853 60.787,257.472 59.616 C 255.092 58.445,252.932 57.275,252.672 57.016 C 252.413 56.756,250.040 55.482,247.400 54.185 C 244.760 52.888,242.540 51.684,242.466 51.511 C 242.392 51.337,242.167 51.297,241.966 51.421 C 241.765 51.545,241.600 51.485,241.600 51.287 C 241.600 51.089,239.665 49.962,237.300 48.783 C 234.935 47.604,232.910 46.526,232.800 46.387 C 232.690 46.249,230.440 45.070,227.800 43.768 C 225.160 42.465,222.940 41.264,222.866 41.098 C 222.792 40.931,222.567 40.897,222.366 41.021 C 222.165 41.145,222.000 41.052,222.000 40.814 C 222.000 40.576,220.296 39.569,218.214 38.576 C 216.132 37.583,214.197 36.553,213.914 36.286 C 213.265 35.673,204.227 31.200,203.638 31.200 C 203.397 31.200,203.200 30.930,203.200 30.600 C 203.200 29.999,202.324 29.864,201.200 30.292 " stroke="none" fill="#9b9b9b" fill-rule="evenodd"></path><path id="path2" d="M70.271 61.063 C 69.796 61.537,69.949 91.600,70.426 91.600 C 71.121 91.600,72.400 90.804,72.400 90.372 C 72.400 90.115,72.115 90.125,71.600 90.400 C 70.807 90.825,70.800 90.704,70.800 76.214 L 70.800 61.600 89.000 61.600 L 107.200 61.600 107.200 66.384 C 107.200 72.243,108.255 71.185,96.200 77.420 C 90.680 80.275,88.315 81.648,88.537 81.870 C 88.735 82.068,96.097 78.428,96.400 77.982 C 96.510 77.820,98.715 76.660,101.300 75.404 C 103.885 74.148,106.000 72.971,106.000 72.787 C 106.000 72.604,106.365 72.338,106.811 72.196 C 107.581 71.952,107.617 71.663,107.511 66.470 L 107.400 61.000 88.971 60.896 C 78.834 60.839,70.419 60.914,70.271 61.063 M83.400 84.238 C 81.200 85.463,77.960 87.192,76.200 88.080 C 72.614 89.887,72.578 89.911,72.895 90.228 C 73.135 90.469,76.459 88.905,76.800 88.391 C 76.910 88.225,78.925 87.166,81.278 86.038 C 83.631 84.910,85.791 83.753,86.078 83.467 C 86.365 83.182,86.960 82.740,87.400 82.486 C 87.840 82.232,88.020 82.021,87.800 82.016 C 87.580 82.012,85.600 83.012,83.400 84.238 M268.800 87.400 C 269.350 87.714,269.980 87.972,270.200 87.972 C 270.420 87.972,270.150 87.714,269.600 87.400 C 269.050 87.086,268.420 86.828,268.200 86.828 C 267.980 86.828,268.250 87.086,268.800 87.400 M300.000 104.200 C 300.578 104.897,301.200 104.988,301.200 104.376 C 301.200 104.143,301.020 104.064,300.800 104.200 C 300.580 104.336,300.400 104.257,300.400 104.024 C 300.400 103.791,300.198 103.600,299.951 103.600 C 299.641 103.600,299.656 103.785,300.000 104.200 M103.800 113.404 C 102.480 114.170,100.815 115.102,100.100 115.473 C 99.385 115.844,98.800 116.268,98.800 116.415 C 98.800 116.561,100.465 115.814,102.500 114.753 C 104.535 113.693,106.425 112.820,106.700 112.813 C 107.097 112.803,107.200 121.380,107.200 154.400 L 107.200 196.000 168.776 196.000 C 209.396 196.000,230.437 195.864,230.600 195.600 C 230.764 195.334,210.204 195.200,169.224 195.200 L 107.600 195.200 107.600 153.600 C 107.600 106.214,108.046 110.937,103.800 113.404 M44.900 113.465 C 44.625 113.576,44.400 113.854,44.400 114.082 C 44.400 114.355,44.585 114.345,44.937 114.052 C 45.232 113.807,45.592 113.725,45.737 113.870 C 45.882 114.015,46.000 113.923,46.000 113.667 C 46.000 113.178,45.733 113.129,44.900 113.465 M95.400 117.797 C 94.080 118.560,90.840 120.286,88.200 121.633 C 85.560 122.980,83.310 124.213,83.200 124.372 C 83.090 124.531,80.885 125.685,78.300 126.936 C 75.715 128.188,73.600 129.383,73.600 129.593 C 73.600 130.100,74.145 129.856,80.000 126.730 C 82.750 125.262,85.495 123.838,86.100 123.566 C 86.705 123.294,87.200 122.910,87.200 122.712 C 87.200 122.515,87.359 122.451,87.553 122.571 C 87.747 122.691,88.332 122.455,88.853 122.046 C 89.374 121.638,91.735 120.345,94.100 119.173 C 96.465 118.001,98.400 116.898,98.400 116.721 C 98.400 116.176,97.885 116.360,95.400 117.797 M70.900 130.888 L 70.000 131.322 70.000 181.861 C 70.000 215.287,70.135 232.400,70.400 232.400 C 70.665 232.400,70.800 215.267,70.800 181.800 C 70.800 138.010,70.878 131.200,71.376 131.200 C 71.693 131.200,72.064 131.020,72.200 130.800 C 72.510 130.298,72.060 130.329,70.900 130.888 M131.200 152.367 C 131.200 162.469,131.309 171.019,131.443 171.367 C 131.735 172.128,230.130 172.361,230.599 171.602 C 230.762 171.338,214.080 171.169,181.323 171.102 L 131.800 171.000 131.696 153.000 L 131.592 135.000 199.196 135.000 L 266.800 135.000 266.800 183.700 C 266.800 215.900,266.936 232.400,267.200 232.400 C 267.464 232.400,267.600 215.733,267.600 183.200 L 267.600 134.000 199.400 134.000 L 131.200 134.000 131.200 152.367 M290.896 152.500 L 290.800 171.200 309.400 171.200 L 328.000 171.200 328.000 165.000 C 328.000 161.133,327.849 158.800,327.600 158.800 C 327.351 158.800,327.200 161.067,327.200 164.800 L 327.200 170.800 309.204 170.800 L 291.208 170.800 291.100 152.300 L 290.992 133.800 290.896 152.500 M327.200 140.376 L 327.200 146.800 315.100 146.806 C 308.445 146.809,302.807 146.944,302.571 147.106 C 302.081 147.442,302.012 158.800,302.500 158.800 C 302.665 158.800,302.800 156.190,302.800 153.000 L 302.800 147.200 315.400 147.200 L 328.000 147.200 328.000 140.824 C 328.000 137.004,327.840 134.348,327.600 134.200 C 327.340 134.039,327.200 136.196,327.200 140.376 M290.800 274.600 L 290.800 354.400 309.400 354.400 L 328.000 354.400 328.000 274.600 L 328.000 194.800 309.400 194.800 L 290.800 194.800 290.800 274.600 M327.200 274.804 L 327.200 354.008 309.300 353.904 L 291.400 353.800 291.299 274.700 L 291.198 195.600 309.199 195.600 L 327.200 195.600 327.200 274.804 M204.000 275.000 L 204.000 293.200 185.800 293.200 C 173.933 293.200,167.600 293.339,167.600 293.600 C 167.600 293.861,174.067 294.000,186.200 294.000 L 204.800 294.000 204.800 275.400 C 204.800 263.267,204.661 256.800,204.400 256.800 C 204.139 256.800,204.000 263.133,204.000 275.000 M266.000 306.200 C 266.000 338.867,266.135 355.600,266.400 355.600 C 266.665 355.600,266.800 338.867,266.800 306.200 C 266.800 273.533,266.665 256.800,266.400 256.800 C 266.135 256.800,266.000 273.533,266.000 306.200 M110.500 317.900 C 132.445 317.957,168.355 317.957,190.300 317.900 C 212.245 317.843,194.290 317.796,150.400 317.796 C 106.510 317.796,88.555 317.843,110.500 317.900 " stroke="none" fill="#2486c6" fill-rule="evenodd"></path><path id="path3" d="" stroke="none" fill="#4890d8" fill-rule="evenodd"></path><path id="path4" d="" stroke="none" fill="#4890d8" fill-rule="evenodd"></path></g></svg>