<?xml version="1.0" encoding="UTF-8"?>
<svg width="16px" height="13px" viewBox="0 0 16 13" version="1.1" xmlns="http://www.w3.org/2000/svg" xmlns:xlink="http://www.w3.org/1999/xlink">
    <!-- Generator: Sketch 50.2 (55047) - http://www.bohemiancoding.com/sketch -->
    <title>Arrow Left</title>
    <desc>Created with Sketch.</desc>
    <defs></defs>
    <g id="Mockups" stroke="none" stroke-width="1" fill="none" fill-rule="evenodd">
        <g id="3.1---Reviews---Opened-Current-Cycle" transform="translate(-932.000000, -399.000000)" fill="#32A69A">
            <g id="Group-4" transform="translate(303.000000, 84.000000)">
                <path d="M641.574198,319.908531 C641.580728,319.936003 641.582304,319.937805 641.582304,319.939831 C641.572396,320.068861 641.530287,320.164338 641.463183,320.238874 C641.44787,320.267022 641.438412,320.264319 641.431882,320.269724 C641.426253,320.274903 636.489124,324.751308 636.489124,324.751308 C636.31776,324.922897 636.039884,324.922897 635.86852,324.751308 C635.697156,324.579719 635.697156,324.302744 635.86852,324.131606 L639.98621,320.38862 L629.449014,320.38862 C629.200863,320.38862 629,320.187307 629,319.939831 C629,319.692355 629.201088,319.491042 629.449014,319.491042 L639.98621,319.491042 L635.86852,315.748507 C635.697156,315.577143 635.697156,315.299943 635.86852,315.128354 C636.039884,314.957215 636.31776,314.957215 636.489124,315.128354 L641.385495,319.578638 C641.418371,319.609939 641.439764,319.60521 641.453725,319.618946 C641.471289,319.63651 641.465885,319.661731 641.479846,319.680871 C641.531638,319.745949 641.566992,319.82071 641.574198,319.908531 Z" id="Arrow-Left"></path>
            </g>
        </g>
    </g>
</svg>