<?xml version="1.0" encoding="UTF-8"?>
<svg width="18px" height="20px" viewBox="0 0 18 20" version="1.1" xmlns="http://www.w3.org/2000/svg" xmlns:xlink="http://www.w3.org/1999/xlink">
    <!-- Generator: Sketch 50.2 (55047) - http://www.bohemiancoding.com/sketch -->
    <title>Bell</title>
    <desc>Created with Sketch.</desc>
    <defs></defs>
    <g id="Symbols" stroke="none" stroke-width="1" fill="none" fill-rule="evenodd" opacity="0.319010417">
        <g id="reviews-sidebar" transform="translate(-23.000000, -205.000000)" fill="#1D364B">
            <g id="Group-5">
                <path d="M34.76875,221.25 C34.813125,221.455625 34.875,221.655625 34.875,221.875 C34.875,223.600313 33.475625,225 31.7503125,225 C30.024375,225 28.6253125,223.600313 28.6253125,221.875 C28.6253125,221.655625 28.686875,221.455625 28.73125,221.25 L23,221.25 C23,221.25 25.5,218.16625 25.5,216.178438 L25.5,215 L25.5,213.749688 L25.5,212.499063 L25.5,211.25 C25.5,207.798125 28.298125,205 31.7503125,205 C35.201875,205 38,207.798125 38,211.25 L38,212.499063 L38,213.749688 L38,215 L38,216.216563 C38,218.19 40.5,221.249688 40.5,221.249688 L34.76875,221.249688 L34.76875,221.25 Z M31.7503125,223.75 C32.785625,223.75 33.625,222.910313 33.625,221.875 C33.625,221.653438 33.569375,221.447188 33.4990625,221.25 L30.00125,221.25 C29.9309375,221.447188 29.8753125,221.653438 29.8753125,221.875 C29.875,222.910625 30.7146875,223.75 31.7503125,223.75 L31.7503125,223.75 Z M36.75,211.250313 C36.75,208.488438 34.5115625,206.250313 31.7503125,206.250313 C28.9884375,206.250313 26.75,208.488438 26.75,211.250313 L26.75,212.499375 L36.75,212.499375 L36.75,211.250313 L36.75,211.250313 Z M26.75,212.5 L26.75,216.25 L36.75,216.25 L36.75,212.5 L26.75,212.5 L26.75,212.5 Z M36.7528125,216.25 L26.745,216.25 C26.7153125,218.209688 25.5003125,220 25.5003125,220 L38.0003125,220 C38,220 36.7665625,218.210625 36.7528125,216.25 L36.7528125,216.25 Z" id="Bell"></path>
            </g>
        </g>
    </g>
</svg>