<svg width="90" height="52" viewBox="0 0 90 52" fill="none" xmlns="http://www.w3.org/2000/svg">
<path d="M44.9999 0.000100546C32.6499 -0.0404995 20.9274 4.27743 12.5307 12.8751C4.13399 21.4728 -0.882158 34.3342 0.128782 51.0626C0.160182 51.565 0.623972 52.001 1.12592 52.0001C30.3755 51.7715 59.6244 51.8956 88.874 52.0001C89.3759 52.001 89.8397 51.565 89.8711 51.0626C90.8821 34.3339 85.8712 21.5146 77.4692 12.9376C69.0672 4.36063 57.3243 0.0406105 44.9999 0.000100546V0.000100546ZM44.0028 2.0001C44.0028 4.682 44.0028 7.37636 44.0028 10.0626C43.9958 10.5909 44.4731 11.0768 44.9999 11.0768C45.5268 11.0768 46.0045 10.5909 45.9971 10.0626C45.9971 7.38623 45.9971 4.70557 45.9971 2.03141C55.5764 2.25069 64.6668 5.16277 71.9226 10.7189L67.1239 17.4689C66.7734 17.8907 66.8657 18.6057 67.3119 18.9241C67.758 19.2424 68.4618 19.0955 68.7443 18.6252L73.4807 11.9689C74.3632 12.7199 75.2178 13.5088 76.0358 14.3439C81.1637 19.5786 84.9459 26.4866 86.7551 35.0627C84.0835 35.0626 81.3719 35.0627 78.7156 35.0627C78.1935 35.1117 77.763 35.6328 77.812 36.1564C77.861 36.68 78.3805 37.1118 78.9026 37.0627H87.1601C87.8354 41.0393 88.0947 45.3436 87.8768 50.0001L53.8807 49.8751C53.7622 48.8084 53.4907 47.8207 53.0705 46.9376L70.9255 25.0627L49.1443 42.9377C47.8571 42.2957 46.3986 41.9484 44.8753 41.9689C40.1077 41.8749 36.1192 45.8751 36.088 49.8751L2.12305 50.0001C1.90522 45.3464 2.16885 41.0428 2.83975 37.0627H11.0973C11.6241 37.0727 12.1086 36.591 12.1086 36.0627C12.1086 35.5343 11.6241 35.0552 11.0973 35.0627H3.21367C5.01454 26.4708 8.80806 19.5289 13.9329 14.2814C14.7486 13.4461 15.6077 12.6574 16.4881 11.9064L21.2556 18.6252C21.5381 19.0955 22.2419 19.2424 22.688 18.9241C23.1342 18.6057 23.2265 17.8907 22.876 17.4689L18.0461 10.6564C25.1507 4.87511 36.1192 1.8751 44.0028 2.0001V2.0001ZM44.9065 43.9689C48.0848 43.8749 51.0763 45.8751 51.8864 49.8751C47.2954 49.8291 42.7045 49.8551 38.1135 49.8751C38.7301 46.2468 41.7073 44.053 44.9065 43.9689V43.9689Z" fill="#1D364B"/>
</svg>
