<?xml version="1.0" encoding="UTF-8"?>
<svg width="20px" height="20px" viewBox="0 0 20 20" version="1.1" xmlns="http://www.w3.org/2000/svg" xmlns:xlink="http://www.w3.org/1999/xlink">
    <!-- Generator: Sketch 50.2 (55047) - http://www.bohemiancoding.com/sketch -->
    <title>Gear</title>
    <desc>Created with Sketch.</desc>
    <defs></defs>
    <g id="Symbols" stroke="none" stroke-width="1" fill="none" fill-rule="evenodd" opacity="0.319010417">
        <g id="reviews-sidebar" transform="translate(-22.000000, -156.000000)" fill="#1D364B">
            <g id="Group-5">
                <path d="M41.5,166.249703 C41.5,167.496875 40.5354531,168.507438 39.3138125,168.605109 C39.1825937,169.012422 39.022875,169.401922 38.8290156,169.776281 C39.6133594,170.709359 39.5955469,172.089234 38.7173906,172.966797 C37.8398281,173.844656 36.4599531,173.862469 35.526875,173.078422 C35.1522187,173.272281 34.7633125,173.432 34.3562969,173.563219 C34.2583281,174.785156 33.2471719,175.749406 32,175.749406 C30.7528281,175.749406 29.7419687,174.785156 29.644,173.563219 C29.2366875,173.432 28.8474844,173.272281 28.473125,173.078422 C27.53975,173.862469 26.1601719,173.844656 25.2823125,172.966797 C24.4044531,172.088938 24.3866406,170.709359 25.1712812,169.776281 C24.977125,169.401922 24.8177031,169.012422 24.6864844,168.605109 C23.4645469,168.507438 22.5,167.496875 22.5,166.249703 C22.5,165.002828 23.4645469,163.991672 24.6864844,163.894 C24.8174062,163.486688 24.977125,163.097484 25.1709844,162.723125 C24.3869375,161.790047 24.4044531,160.410469 25.2823125,159.532313 C26.1601719,158.654453 27.53975,158.636938 28.473125,159.420688 C28.8477812,159.226828 29.2366875,159.067109 29.644,158.935594 C29.7416719,157.713656 30.7528281,156.75 32,156.75 C33.2471719,156.75 34.2580312,157.713656 34.356,158.935594 C34.7633125,159.067109 35.1528125,159.226828 35.526875,159.420688 C36.46025,158.636937 37.8398281,158.654453 38.7173906,159.532313 C39.5955469,160.410469 39.6133594,161.78975 38.8290156,162.723125 C39.022875,163.097484 39.1822969,163.486688 39.3138125,163.894 C40.5354531,163.991375 41.5,165.002828 41.5,166.249703 L41.5,166.249703 Z M38.422,165.062203 C38.2524844,164.143375 37.8802031,163.299656 37.3686875,162.560141 L37.8778281,162.051594 C38.3415469,161.587578 38.3415469,160.836188 37.8778281,160.372172 C37.4141094,159.908453 36.662125,159.908453 36.1987031,160.372172 L35.686,160.884875 C34.9461875,160.377219 34.10425,160.007313 33.1875,159.838391 L33.1875,159.125297 C33.1875,158.468906 32.6557969,157.937797 32,157.937797 C31.3442031,157.937797 30.8125,158.469203 30.8125,159.125297 L30.8125,159.838391 C29.8960469,160.007313 29.0538125,160.377219 28.314,160.884875 L27.8012969,160.372172 C27.3375781,159.908453 26.5855937,159.908453 26.1221719,160.372172 C25.6581562,160.836188 25.6581562,161.587578 26.1221719,162.051594 L26.6310156,162.560141 C26.1197969,163.299656 25.7472187,164.143375 25.578,165.062203 L24.875,165.062203 C24.2192031,165.062203 23.6875,165.594203 23.6875,166.249703 C23.6875,166.9055 24.2192031,167.437203 24.875,167.437203 L25.578,167.437203 C25.7475156,168.355734 26.1197969,169.199453 26.6313125,169.939563 L26.1221719,170.448703 C25.6581562,170.912719 25.6581562,171.663219 26.1221719,172.127234 C26.5858906,172.590656 27.337875,172.590656 27.8012969,172.127234 L28.3137031,171.614828 C29.0535156,172.122188 29.8960469,172.492391 30.8125,172.661016 L30.8125,173.374109 C30.8125,174.0305 31.3442031,174.561906 32,174.561906 C32.6557969,174.561906 33.1875,174.0305 33.1875,173.374109 L33.1875,172.661016 C34.10425,172.492391 34.9464844,172.122188 35.6862969,171.614828 L36.1987031,172.127234 C36.6624219,172.590656 37.4144062,172.590656 37.8778281,172.127234 C38.3415469,171.663219 38.3415469,170.912719 37.8778281,170.448703 L37.3686875,169.939563 C37.8802031,169.199453 38.2524844,168.355734 38.422,167.437203 L39.125,167.437203 C39.7807969,167.437203 40.3125,166.9055 40.3125,166.249703 C40.3125,165.594203 39.7807969,165.062203 39.125,165.062203 L38.422,165.062203 L38.422,165.062203 Z M32,169.8125 C30.0326094,169.8125 28.4375,168.217094 28.4375,166.249703 C28.4375,164.282313 30.0326094,162.687203 32,162.687203 C33.9673906,162.687203 35.5625,164.282313 35.5625,166.249703 C35.5625,168.217094 33.9673906,169.8125 32,169.8125 L32,169.8125 Z M32,163.875 C30.6884062,163.875 29.625,164.938109 29.625,166.249703 C29.625,167.561891 30.6884062,168.624109 32,168.624109 C33.3118906,168.624109 34.375,167.561891 34.375,166.249703 C34.375,164.938109 33.3118906,163.875 32,163.875 L32,163.875 Z" id="Gear"></path>
            </g>
        </g>
    </g>
</svg>