<svg width="60" height="50" viewBox="0 0 60 50" fill="none" xmlns="http://www.w3.org/2000/svg">
<path fill-rule="evenodd" clip-rule="evenodd" d="M59.7078 25.6833L47.6272 37.6893C46.6843 38.6313 45.2704 37.2188 46.2133 36.2768L55.798 26.7054C56.1861 26.3178 56.0615 25.9989 55.5138 25.9989L31.3893 25.9989C30.8509 25.9989 30.3978 25.5517 30.3978 25C30.3978 24.4445 30.8417 24.0011 31.3893 24.0011L55.5138 24.0011C56.0523 24.0011 56.1887 23.6848 55.798 23.2946L46.2133 13.7232C45.2704 12.7812 46.6843 11.3687 47.6272 12.3107L59.7078 24.2827C60.0973 24.6687 60.0975 25.2959 59.7078 25.6833ZM42.6777 7.32233C43.0682 7.71285 43.0682 8.34602 42.6777 8.73655C42.2871 9.12707 41.654 9.12707 41.2635 8.73655C32.2814 -0.245513 17.7186 -0.245513 8.73654 8.73655C-0.245517 17.7186 -0.245517 32.2814 8.73654 41.2635C17.7186 50.2455 32.2814 50.2455 41.2635 41.2635C41.654 40.8729 42.2871 40.8729 42.6777 41.2635C43.0682 41.654 43.0682 42.2871 42.6777 42.6777C32.9146 52.4408 17.0854 52.4408 7.32233 42.6777C-2.44077 32.9146 -2.44077 17.0854 7.32233 7.32233C17.0854 -2.44078 32.9146 -2.44078 42.6777 7.32233Z" fill="#1D364B"/>
</svg>
