<svg width="91" height="74" viewBox="0 0 91 74" fill="none" xmlns="http://www.w3.org/2000/svg">
<path d="M9.70002 27.9H18.8C19.8 27.9 20.6 27.1 20.6 26.1V17C20.6 16 19.8 15.2 18.8 15.2H9.70002C8.70002 15.2 7.90002 16 7.90002 17V26.1C7.90002 27.1 8.70002 27.9 9.70002 27.9ZM9.60003 17C9.60003 16.9 9.60002 16.9 9.70002 16.9H18.8C18.9 16.9 18.9 16.9 18.9 17V26.1C18.9 26.2 18.9 26.2 18.8 26.2H9.70002C9.60002 26.2 9.60003 26.2 9.60003 26.1V17V17Z" fill="#1D364B"/>
<path d="M19 35H9.89997C8.89997 35 8.09998 35.8 8.09998 36.8V45.9C8.09998 46.9 8.89997 47.7 9.89997 47.7H19C20 47.7 20.8 46.9 20.8 45.9V36.8C20.7 35.8 19.9 35 19 35ZM19.1 45.9C19.1 46 19.1 46 19 46H9.89997C9.79997 46 9.79998 46 9.79998 45.9V36.8C9.79998 36.7 9.79997 36.7 9.89997 36.7H19C19.1 36.7 19.1 36.7 19.1 36.8V45.9Z" fill="#1D364B"/>
<path d="M39.1 45.8V36.7C39.1 35.7 38.3 34.9 37.3 34.9H28.2C27.2 34.9 26.4 35.7 26.4 36.7V45.8C26.4 46.8 27.2 47.6 28.2 47.6H37.3C38.3 47.5 39.1 46.7 39.1 45.8ZM28.1 45.8V36.7C28.1 36.6 28.1 36.6 28.2 36.6H37.3C37.4 36.6 37.4 36.6 37.4 36.7V45.8C37.4 45.9 37.4 45.9 37.3 45.9H28.2C28.1 45.9 28.1 45.8 28.1 45.8Z" fill="#1D364B"/>
<path d="M28 27.8H37.1C38.1 27.8 38.9 27 38.9 26V16.9C38.9 15.9 38.1 15.1 37.1 15.1H28C27 15.1 26.2 15.9 26.2 16.9V26C26.2 27 27 27.8 28 27.8ZM27.9 16.9C27.9 16.8 27.9 16.8 28 16.8H37.1C37.2 16.8 37.2 16.8 37.2 16.9V26C37.2 26.1 37.2 26.1 37.1 26.1H28C27.9 26.1 27.9 26.1 27.9 26V16.9Z" fill="#1D364B"/>
<path d="M66.9 44.9H61C59.7 44.9 58.6 46 58.6 47.3V48.9C58.6 50.2 59.7 51.3 61 51.3H66.9C68.2 51.3 69.3 50.2 69.3 48.9V47.3C69.3 46 68.2 44.9 66.9 44.9ZM67.6 48.9C67.6 49.3 67.3 49.7 66.8 49.7H60.9C60.5 49.7 60.1 49.4 60.1 48.9V47.3C60.1 46.9 60.4 46.5 60.9 46.5H66.8C67.2 46.5 67.6 46.8 67.6 47.3V48.9Z" fill="#1D364B"/>
<path d="M89.7 52.5L82.6 46V33.2C82.6 32.7 82.2 32.4 81.8 32.4H74.5C74 32.4 73.7 32.8 73.7 33.2V37.9L65.5 30.4C64.6 29.6 63.1 29.6 62.3 30.4L47 44.1V4.3C47 2.20001 45.3 0.600006 43.3 0.600006H3.7C1.6 0.600006 0 2.3 0 4.3V69.8C0 71.9 1.7 73.5 3.7 73.5H17.2H29.7H47.3C47.4 73.5 47.6 73.5 47.7 73.4H47.8H58.6H69.4H70.3H80C81.6 73.4 82.8 72.1 82.8 70.6V54.4L89.2 54C89.5 54 89.8 53.8 89.9 53.4C90.1 53.1 90 52.8 89.7 52.5ZM81 34V44.5L75.4 39.4V34H81ZM28.9 71.8H18.1V59.4C18.1 59.2 18.2 59.1 18.4 59.1H28.6C28.8 59.1 28.9 59.2 28.9 59.4V71.8ZM28.6 57.4H18.4C17.3 57.4 16.4 58.3 16.4 59.4V71.8H3.7C2.6 71.8 1.6 70.9 1.6 69.7V4.3C1.6 3.2 2.5 2.20001 3.7 2.20001H43.2C44.3 2.20001 45.3 3.1 45.3 4.3V45.6L37.7 52.5C37.4 52.7 37.4 53.1 37.5 53.4C37.6 53.7 37.9 53.9 38.3 53.9L45 54.1V70.6C45 71.1 45.1 71.5 45.3 71.9H30.5V59.4C30.5 58.3 29.7 57.4 28.6 57.4ZM68.5 71.7H59.4V62.6C59.4 61.9 60 61.3 60.7 61.3H67.2C67.9 61.3 68.5 61.9 68.5 62.6V71.7ZM82 52.8C81.6 52.8 81.2 53.2 81.2 53.6V70.6C81.2 71.2 80.7 71.8 80 71.8H70.1V62.7C70.1 61.1 68.8 59.7 67.1 59.7H60.6C59 59.7 57.6 61 57.6 62.7V71.8H47.7C47.1 71.8 46.5 71.3 46.5 70.6V53.2C46.5 52.7 46.1 52.4 45.7 52.4L40.3 52.3L63.3 31.6C63.6 31.3 64 31.3 64.3 31.6L73.9 40.4L81.2 47.1L87.1 52.5L82 52.8Z" fill="#1D364B"/>
</svg>
