<svg width="90" height="85" viewBox="0 0 90 85" fill="none" xmlns="http://www.w3.org/2000/svg">
<path d="M89 38.48L77 27.48V8.4C77 7.86957 76.7892 7.36086 76.4142 6.98579C76.0391 6.61072 75.5304 6.4 75 6.4H64.64C64.1095 6.4 63.6008 6.61072 63.2257 6.98579C62.8507 7.36086 62.64 7.86957 62.64 8.4V14.4L48.46 1.4C47.5189 0.527777 46.2831 0.0431633 45 0.0431633C43.7168 0.0431633 42.481 0.527777 41.54 1.4L0.999963 38.48C0.532758 38.9091 0.20599 39.4693 0.0624344 40.0871C-0.0811214 40.705 -0.0347764 41.3519 0.195403 41.943C0.425582 42.5341 0.82887 43.042 1.35248 43.4001C1.87608 43.7582 2.49561 43.9498 3.12996 43.95H9.25996C9.47546 43.9496 9.68278 43.8674 9.83996 43.72L13.07 40.72V74.11H12.8C12.1906 74.1125 11.6065 74.3537 11.1728 74.7817C10.7391 75.2098 10.4904 75.7907 10.48 76.4V82.4C10.4706 82.711 10.5236 83.0207 10.6359 83.3108C10.7482 83.601 10.9174 83.8657 11.1337 84.0894C11.3499 84.3131 11.6087 84.4912 11.8949 84.6133C12.1811 84.7353 12.4888 84.7988 12.8 84.8H76.61C77.2279 84.8 77.8206 84.5545 78.2575 84.1176C78.6945 83.6806 78.94 83.088 78.94 82.47V76.4C78.9408 75.8386 78.7389 75.2958 78.3715 74.8714C78.004 74.447 77.4957 74.1695 76.94 74.09V40.71L80.17 43.71C80.3271 43.8574 80.5345 43.9396 80.75 43.94H86.88C87.5113 43.9357 88.1267 43.7418 88.6465 43.3834C89.1663 43.025 89.5664 42.5188 89.7949 41.9302C90.0234 41.3417 90.0698 40.6981 89.928 40.0829C89.7863 39.4676 89.463 38.9092 89 38.48ZM64.64 8.11H75C75.0769 8.11 75.1506 8.14056 75.205 8.19494C75.2594 8.24933 75.29 8.32309 75.29 8.4V25.95L64.35 15.95V8.4C64.35 8.32309 64.3805 8.24933 64.4349 8.19494C64.4893 8.14056 64.563 8.11 64.64 8.11ZM77.24 76.4V82.4C77.24 82.5644 77.1746 82.7221 77.0584 82.8384C76.9421 82.9547 76.7844 83.02 76.62 83.02H12.8C12.7185 83.02 12.6379 83.004 12.5627 82.9728C12.4875 82.9416 12.4191 82.896 12.3616 82.8384C12.304 82.7808 12.2583 82.7125 12.2272 82.6373C12.196 82.562 12.18 82.4814 12.18 82.4V76.4C12.18 76.3186 12.196 76.238 12.2272 76.1627C12.2583 76.0875 12.304 76.0192 12.3616 75.9616C12.4191 75.904 12.4875 75.8583 12.5627 75.8272C12.6379 75.796 12.7185 75.78 12.8 75.78H76.61C76.6922 75.7787 76.7739 75.7937 76.8503 75.8243C76.9267 75.8549 76.9962 75.9003 77.0548 75.958C77.1135 76.0157 77.16 76.0845 77.1918 76.1604C77.2236 76.2363 77.24 76.3177 77.24 76.4ZM75.24 74.07H14.8V39.07L45 10.91L75.2 39.11L75.24 74.07ZM88.24 41.29C88.1396 41.5654 87.9553 41.8023 87.7131 41.9673C87.4709 42.1324 87.183 42.2173 86.89 42.21H81.05L45.58 9.12C45.4226 8.97308 45.2153 8.89137 45 8.89137C44.7846 8.89137 44.5774 8.97308 44.42 9.12L8.93996 42.25H3.14996C2.85802 42.2521 2.57223 42.1661 2.32999 42.0032C2.08775 41.8402 1.90034 41.6079 1.79228 41.3367C1.68423 41.0655 1.66056 40.768 1.72438 40.4831C1.7882 40.1982 1.93653 39.9392 2.14996 39.74L42.69 2.61C43.3184 2.02806 44.1434 1.70478 45 1.70478C45.8565 1.70478 46.6815 2.02806 47.31 2.61L62.93 16.92L75.57 28.51L87.83 39.74C88.0502 39.933 88.2043 40.1903 88.2707 40.4755C88.3371 40.7607 88.3123 41.0596 88.2 41.33L88.24 41.29Z" fill="#1D364B"/>
<path d="M40.08 34.25C38.1302 34.169 36.2106 34.7521 34.6351 35.9038C33.0597 37.0555 31.9217 38.7077 31.4072 40.5902C30.8928 42.4727 31.0323 44.474 31.803 46.2669C32.5737 48.0598 33.93 49.5381 35.65 50.46C35.3896 50.596 35.1096 50.6905 34.82 50.74C30.9 51.36 28.65 54.28 28.65 58.74V64.15C28.65 64.9165 28.9545 65.6516 29.4965 66.1935C30.0385 66.7355 30.7735 67.04 31.54 67.04H47.93C48.4755 67.0408 49.0101 66.8872 49.4719 66.597C49.9338 66.3068 50.3041 65.8918 50.54 65.4H58.35C59.1165 65.4 59.8516 65.0955 60.3936 64.5535C60.9355 64.0116 61.24 63.2765 61.24 62.51V57.09C61.24 52.63 58.99 49.71 55.07 49.09C54.7702 49.0492 54.4794 48.9579 54.21 48.82C55.3187 48.2348 56.2863 47.4149 57.0455 46.4173C57.8047 45.4198 58.3372 44.2686 58.6059 43.0442C58.8745 41.8197 58.8729 40.5514 58.6011 39.3276C58.3292 38.1038 57.7937 36.9541 57.032 35.9585C56.2702 34.963 55.3004 34.1455 54.1902 33.5632C53.0801 32.9809 51.8563 32.6477 50.6042 32.587C49.3521 32.5262 48.1017 32.7392 46.9404 33.2112C45.7791 33.6833 44.7347 34.4029 43.88 35.32C42.7149 34.6701 41.4131 34.3035 40.08 34.25V34.25ZM50.43 34.3C52.0449 34.3666 53.5855 34.9963 54.7846 36.08C55.9837 37.1636 56.7657 38.6328 56.9949 40.2326C57.2242 41.8325 56.8862 43.4622 56.0396 44.8389C55.193 46.2157 53.8912 47.2526 52.36 47.77C52.2036 47.8225 52.0658 47.9195 51.9636 48.049C51.8613 48.1785 51.7989 48.335 51.7841 48.4993C51.7693 48.6637 51.8026 48.8288 51.88 48.9745C51.9574 49.1202 52.0755 49.2403 52.22 49.32C52.853 50.1221 53.7762 50.643 54.79 50.77C58.7 51.39 59.52 54.55 59.52 57.08V62.5C59.52 62.8156 59.3946 63.1183 59.1715 63.3415C58.9483 63.5646 58.6456 63.69 58.33 63.69H50.82V58.69C50.82 54.23 48.57 51.31 44.65 50.69C44.3502 50.649 44.0595 50.5577 43.79 50.42C45.0225 49.7579 46.0748 48.8051 46.8557 47.6443C47.6366 46.4834 48.1225 45.1496 48.2713 43.7585C48.4201 42.3674 48.2272 40.961 47.7094 39.6612C47.1917 38.3615 46.3646 37.2078 45.3 36.3C45.9739 35.6321 46.7779 35.1098 47.6622 34.7658C48.5464 34.4217 49.4919 34.2632 50.44 34.3H50.43ZM46.64 42.51C46.7001 44.0095 46.2767 45.4886 45.4322 46.7291C44.5878 47.9697 43.3671 48.906 41.95 49.4C41.7936 49.4525 41.6558 49.5495 41.5536 49.679C41.4513 49.8085 41.3889 49.965 41.3741 50.1293C41.3593 50.2937 41.3926 50.4588 41.47 50.6045C41.5474 50.7502 41.6655 50.8703 41.81 50.95C42.4454 51.7544 43.3726 52.2755 44.39 52.4C48.3 53.02 49.12 56.18 49.12 58.71V64.12C49.12 64.4356 48.9946 64.7383 48.7715 64.9615C48.5483 65.1846 48.2456 65.31 47.93 65.31H31.54C31.2244 65.31 30.9217 65.1846 30.6986 64.9615C30.4754 64.7383 30.35 64.4356 30.35 64.12V58.74C30.35 56.2 31.17 53.05 35.09 52.43C36.096 52.2714 37.0115 51.7568 37.67 50.98C37.824 50.9035 37.9511 50.7821 38.0347 50.6319C38.1182 50.4816 38.1542 50.3096 38.138 50.1385C38.1217 49.9673 38.054 49.8051 37.9437 49.6733C37.8333 49.5414 37.6856 49.4462 37.52 49.4C35.9703 48.8718 34.6581 47.8113 33.8165 46.4069C32.975 45.0025 32.6586 43.3452 32.9237 41.7296C33.1888 40.114 34.0181 38.6446 35.2643 37.5828C36.5105 36.5209 38.0928 35.9353 39.73 35.93H40C41.7249 36.0134 43.3581 36.7314 44.5856 37.946C45.8132 39.1606 46.5484 40.7861 46.65 42.51H46.64Z" fill="#1D364B"/>
</svg>
